<svg xmlns="http://www.w3.org/2000/svg" xmlns:xlink="http://www.w3.org/1999/xlink" width="1024" zoomAndPan="magnify" viewBox="0 0 768 767.999994" height="1024" preserveAspectRatio="xMidYMid meet" version="1.0"><defs><clipPath id="2aa5f26858"><path d="M 27 33 L 741 33 L 741 747 L 27 747 Z M 27 33 " clip-rule="nonzero"/></clipPath><clipPath id="38a2cc03b8"><path d="M -298.195312 390.132812 L 383.808594 -291.871094 L 1065.8125 390.132812 L 383.808594 1072.136719 Z M -298.195312 390.132812 " clip-rule="nonzero"/></clipPath><clipPath id="530ff5f124"><path d="M -298.195312 390.132812 L 383.808594 -291.871094 L 1065.8125 390.132812 L 383.808594 1072.136719 Z M -298.195312 390.132812 " clip-rule="nonzero"/></clipPath></defs><g clip-path="url(#2aa5f26858)"><g clip-path="url(#38a2cc03b8)"><g clip-path="url(#530ff5f124)"><path fill="#a6a6a6" d="M 649.296875 49.035156 L 383.996094 314.332031 L 118.699219 49.035156 C 117.457031 47.792969 116.160156 46.617188 114.800781 45.503906 C 113.445312 44.390625 112.039062 43.34375 110.578125 42.371094 C 109.117188 41.394531 107.613281 40.492188 106.066406 39.664062 C 104.519531 38.835938 102.933594 38.089844 101.3125 37.417969 C 99.691406 36.746094 98.039062 36.152344 96.359375 35.644531 C 94.679688 35.132812 92.976562 34.707031 91.257812 34.367188 C 89.535156 34.023438 87.800781 33.765625 86.054688 33.59375 C 84.308594 33.421875 82.554688 33.335938 80.800781 33.335938 C 79.042969 33.335938 77.292969 33.421875 75.546875 33.59375 C 73.800781 33.765625 72.066406 34.023438 70.34375 34.367188 C 68.621094 34.707031 66.921875 35.132812 65.242188 35.644531 C 63.5625 36.152344 61.910156 36.746094 60.289062 37.417969 C 58.667969 38.089844 57.082031 38.835938 55.535156 39.664062 C 53.984375 40.492188 52.480469 41.394531 51.023438 42.371094 C 49.5625 43.34375 48.15625 44.390625 46.796875 45.503906 C 45.441406 46.617188 44.140625 47.792969 42.902344 49.035156 C 41.660156 50.277344 40.480469 51.574219 39.367188 52.933594 C 38.253906 54.289062 37.210938 55.699219 36.234375 57.15625 C 35.257812 58.617188 34.359375 60.121094 33.53125 61.667969 C 32.703125 63.214844 31.953125 64.800781 31.28125 66.421875 C 30.609375 68.046875 30.019531 69.695312 29.507812 71.375 C 29 73.054688 28.574219 74.757812 28.230469 76.476562 C 27.890625 78.199219 27.632812 79.933594 27.460938 81.679688 C 27.289062 83.429688 27.203125 85.179688 27.203125 86.933594 C 27.203125 88.691406 27.289062 90.441406 27.460938 92.1875 C 27.632812 93.933594 27.890625 95.667969 28.230469 97.390625 C 28.574219 99.113281 29 100.8125 29.507812 102.492188 C 30.019531 104.171875 30.609375 105.824219 31.28125 107.445312 C 31.953125 109.066406 32.703125 110.652344 33.53125 112.199219 C 34.359375 113.75 35.257812 115.253906 36.234375 116.710938 C 37.210938 118.171875 38.253906 119.578125 39.367188 120.9375 C 40.480469 122.292969 41.660156 123.59375 42.902344 124.835938 L 308.199219 390.132812 L 42.902344 655.429688 C 41.660156 656.671875 40.480469 657.972656 39.367188 659.328125 C 38.253906 660.683594 37.210938 662.09375 36.234375 663.550781 C 35.257812 665.011719 34.359375 666.515625 33.53125 668.0625 C 32.703125 669.613281 31.953125 671.195312 31.28125 672.820312 C 30.609375 674.441406 30.019531 676.089844 29.507812 677.769531 C 29 679.449219 28.574219 681.152344 28.230469 682.875 C 27.890625 684.59375 27.632812 686.328125 27.460938 688.078125 C 27.289062 689.824219 27.203125 691.574219 27.203125 693.332031 C 27.203125 695.085938 27.289062 696.835938 27.460938 698.582031 C 27.632812 700.332031 27.890625 702.066406 28.230469 703.785156 C 28.574219 705.507812 29 707.210938 29.507812 708.890625 C 30.019531 710.570312 30.609375 712.21875 31.28125 713.839844 C 31.953125 715.464844 32.703125 717.046875 33.53125 718.597656 C 34.359375 720.144531 35.257812 721.648438 36.234375 723.109375 C 37.210938 724.566406 38.253906 725.976562 39.367188 727.332031 C 40.480469 728.691406 41.660156 729.988281 42.902344 731.230469 C 44.140625 732.472656 45.441406 733.648438 46.796875 734.761719 C 48.15625 735.875 49.5625 736.921875 51.023438 737.894531 C 52.480469 738.871094 53.984375 739.773438 55.535156 740.601562 C 57.082031 741.425781 58.667969 742.175781 60.289062 742.847656 C 61.910156 743.519531 63.5625 744.109375 65.242188 744.621094 C 66.921875 745.128906 68.621094 745.554688 70.34375 745.898438 C 72.066406 746.242188 73.800781 746.5 75.546875 746.671875 C 77.292969 746.84375 79.042969 746.929688 80.800781 746.929688 C 82.554688 746.929688 84.308594 746.84375 86.054688 746.671875 C 87.800781 746.5 89.535156 746.242188 91.257812 745.898438 C 92.976562 745.554688 94.679688 745.128906 96.359375 744.621094 C 98.039062 744.109375 99.6875 743.519531 101.3125 742.847656 C 102.933594 742.175781 104.519531 741.425781 106.066406 740.597656 C 107.613281 739.773438 109.117188 738.871094 110.578125 737.894531 C 112.039062 736.921875 113.445312 735.875 114.800781 734.761719 C 116.160156 733.648438 117.457031 732.472656 118.699219 731.230469 L 383.996094 465.933594 L 649.296875 731.230469 C 650.539062 732.472656 651.835938 733.648438 653.191406 734.761719 C 654.550781 735.875 655.957031 736.921875 657.417969 737.894531 C 658.878906 738.871094 660.382812 739.773438 661.929688 740.597656 C 663.476562 741.425781 665.0625 742.175781 666.683594 742.847656 C 668.304688 743.519531 669.957031 744.109375 671.636719 744.621094 C 673.316406 745.128906 675.015625 745.554688 676.738281 745.898438 C 678.460938 746.242188 680.195312 746.5 681.941406 746.671875 C 683.6875 746.84375 685.441406 746.929688 687.195312 746.929688 C 688.953125 746.929688 690.703125 746.84375 692.449219 746.671875 C 694.195312 746.5 695.929688 746.242188 697.652344 745.898438 C 699.375 745.554688 701.074219 745.128906 702.753906 744.621094 C 704.433594 744.109375 706.085938 743.519531 707.707031 742.847656 C 709.328125 742.175781 710.914062 741.425781 712.460938 740.597656 C 714.011719 739.773438 715.515625 738.871094 716.972656 737.894531 C 718.433594 736.921875 719.839844 735.875 721.199219 734.761719 C 722.554688 733.648438 723.855469 732.472656 725.09375 731.230469 C 726.335938 729.988281 727.515625 728.6875 728.628906 727.332031 C 729.742188 725.976562 730.785156 724.566406 731.761719 723.109375 C 732.734375 721.648438 733.636719 720.144531 734.464844 718.597656 C 735.292969 717.046875 736.042969 715.464844 736.714844 713.839844 C 737.386719 712.21875 737.976562 710.570312 738.484375 708.890625 C 738.996094 707.207031 739.421875 705.507812 739.765625 703.785156 C 740.105469 702.066406 740.363281 700.332031 740.535156 698.582031 C 740.707031 696.835938 740.792969 695.085938 740.792969 693.332031 C 740.792969 691.574219 740.707031 689.824219 740.535156 688.078125 C 740.363281 686.328125 740.105469 684.59375 739.765625 682.875 C 739.421875 681.152344 738.996094 679.453125 738.484375 677.769531 C 737.976562 676.089844 737.386719 674.441406 736.714844 672.820312 C 736.042969 671.199219 735.292969 669.613281 734.464844 668.0625 C 733.636719 666.515625 732.734375 665.011719 731.761719 663.550781 C 730.785156 662.09375 729.742188 660.683594 728.628906 659.328125 C 727.515625 657.96875 726.335938 656.671875 725.09375 655.429688 L 459.796875 390.132812 L 725.09375 124.835938 C 726.335938 123.59375 727.515625 122.292969 728.628906 120.9375 C 729.742188 119.578125 730.785156 118.171875 731.761719 116.710938 C 732.734375 115.253906 733.636719 113.75 734.464844 112.199219 C 735.292969 110.652344 736.042969 109.066406 736.714844 107.445312 C 737.386719 105.824219 737.976562 104.171875 738.484375 102.492188 C 738.996094 100.8125 739.421875 99.113281 739.765625 97.390625 C 740.105469 95.667969 740.363281 93.933594 740.535156 92.1875 C 740.707031 90.441406 740.792969 88.691406 740.792969 86.933594 C 740.792969 85.179688 740.707031 83.429688 740.535156 81.679688 C 740.363281 79.933594 740.105469 78.199219 739.765625 76.476562 C 739.421875 74.757812 738.996094 73.054688 738.484375 71.375 C 737.976562 69.695312 737.386719 68.046875 736.714844 66.421875 C 736.042969 64.800781 735.292969 63.214844 734.464844 61.667969 C 733.636719 60.121094 732.734375 58.617188 731.761719 57.15625 C 730.785156 55.699219 729.742188 54.289062 728.628906 52.933594 C 727.515625 51.574219 726.335938 50.277344 725.09375 49.035156 C 723.855469 47.792969 722.554688 46.617188 721.199219 45.503906 C 719.839844 44.390625 718.433594 43.34375 716.972656 42.371094 C 715.515625 41.394531 714.011719 40.492188 712.460938 39.664062 C 710.914062 38.835938 709.328125 38.089844 707.707031 37.417969 C 706.085938 36.746094 704.433594 36.152344 702.753906 35.644531 C 701.074219 35.132812 699.375 34.707031 697.652344 34.367188 C 695.929688 34.023438 694.195312 33.765625 692.449219 33.59375 C 690.703125 33.421875 688.953125 33.335938 687.195312 33.335938 C 685.441406 33.335938 683.6875 33.421875 681.941406 33.59375 C 680.195312 33.765625 678.460938 34.023438 676.738281 34.367188 C 675.015625 34.707031 673.316406 35.132812 671.636719 35.644531 C 669.957031 36.152344 668.304688 36.746094 666.683594 37.417969 C 665.0625 38.085938 663.476562 38.835938 661.929688 39.664062 C 660.382812 40.492188 658.878906 41.394531 657.417969 42.371094 C 655.957031 43.34375 654.550781 44.390625 653.195312 45.503906 C 651.835938 46.617188 650.539062 47.792969 649.296875 49.035156 Z M 649.296875 49.035156 " fill-opacity="1" fill-rule="nonzero"/></g></g></g></svg>