<svg xmlns="http://www.w3.org/2000/svg" xmlns:xlink="http://www.w3.org/1999/xlink" width="1024" zoomAndPan="magnify" viewBox="0 0 768 767.999994" height="1024" preserveAspectRatio="xMidYMid meet" version="1.0"><path fill="#ffffff" d="M 725.332031 341.332031 L 426.667969 341.332031 L 426.667969 42.667969 C 426.667969 41.269531 426.597656 39.875 426.460938 38.484375 C 426.324219 37.09375 426.121094 35.714844 425.847656 34.34375 C 425.574219 32.972656 425.234375 31.617188 424.828125 30.28125 C 424.421875 28.945312 423.953125 27.628906 423.417969 26.339844 C 422.882812 25.046875 422.289062 23.785156 421.628906 22.554688 C 420.96875 21.320312 420.253906 20.125 419.476562 18.960938 C 418.699219 17.800781 417.867188 16.679688 416.980469 15.597656 C 416.09375 14.519531 415.15625 13.484375 414.167969 12.496094 C 413.183594 11.507812 412.148438 10.570312 411.066406 9.683594 C 409.988281 8.796875 408.867188 7.96875 407.703125 7.191406 C 406.542969 6.414062 405.34375 5.695312 404.113281 5.039062 C 402.878906 4.378906 401.617188 3.78125 400.328125 3.246094 C 399.035156 2.714844 397.722656 2.242188 396.386719 1.835938 C 395.046875 1.429688 393.695312 1.09375 392.324219 0.820312 C 390.953125 0.546875 389.574219 0.34375 388.183594 0.207031 C 386.792969 0.0703125 385.398438 0 384 0 C 382.601562 0 381.207031 0.0703125 379.816406 0.207031 C 378.425781 0.34375 377.046875 0.546875 375.675781 0.820312 C 374.304688 1.09375 372.953125 1.429688 371.613281 1.835938 C 370.277344 2.242188 368.964844 2.714844 367.671875 3.246094 C 366.382812 3.78125 365.121094 4.378906 363.886719 5.039062 C 362.65625 5.695312 361.457031 6.414062 360.296875 7.191406 C 359.132812 7.96875 358.011719 8.796875 356.933594 9.683594 C 355.851562 10.570312 354.816406 11.507812 353.832031 12.496094 C 352.84375 13.484375 351.90625 14.519531 351.019531 15.597656 C 350.132812 16.679688 349.300781 17.800781 348.523438 18.960938 C 347.746094 20.125 347.03125 21.320312 346.371094 22.554688 C 345.710938 23.785156 345.117188 25.046875 344.582031 26.339844 C 344.046875 27.628906 343.578125 28.945312 343.171875 30.28125 C 342.765625 31.617188 342.425781 32.972656 342.152344 34.34375 C 341.878906 35.714844 341.675781 37.09375 341.539062 38.484375 C 341.402344 39.875 341.332031 41.269531 341.332031 42.667969 L 341.332031 341.332031 L 42.667969 341.332031 C 41.269531 341.332031 39.875 341.402344 38.484375 341.539062 C 37.09375 341.675781 35.714844 341.878906 34.34375 342.152344 C 32.972656 342.425781 31.617188 342.765625 30.28125 343.171875 C 28.945312 343.578125 27.628906 344.046875 26.339844 344.582031 C 25.046875 345.117188 23.785156 345.710938 22.554688 346.371094 C 21.320312 347.03125 20.125 347.746094 18.960938 348.523438 C 17.800781 349.300781 16.679688 350.132812 15.597656 351.019531 C 14.519531 351.90625 13.484375 352.84375 12.496094 353.832031 C 11.507812 354.816406 10.570312 355.851562 9.683594 356.933594 C 8.796875 358.011719 7.96875 359.132812 7.191406 360.296875 C 6.414062 361.457031 5.695312 362.65625 5.039062 363.886719 C 4.378906 365.121094 3.78125 366.382812 3.246094 367.671875 C 2.714844 368.964844 2.242188 370.277344 1.835938 371.613281 C 1.429688 372.953125 1.09375 374.304688 0.820312 375.675781 C 0.546875 377.046875 0.34375 378.425781 0.207031 379.816406 C 0.0703125 381.207031 0 382.601562 0 384 C 0 385.398438 0.0703125 386.792969 0.207031 388.183594 C 0.34375 389.574219 0.546875 390.953125 0.820312 392.324219 C 1.09375 393.695312 1.429688 395.046875 1.835938 396.386719 C 2.242188 397.722656 2.714844 399.035156 3.246094 400.328125 C 3.78125 401.617188 4.378906 402.878906 5.039062 404.113281 C 5.695312 405.34375 6.414062 406.542969 7.191406 407.703125 C 7.96875 408.867188 8.796875 409.988281 9.683594 411.066406 C 10.570312 412.148438 11.507812 413.183594 12.496094 414.167969 C 13.484375 415.15625 14.519531 416.09375 15.597656 416.980469 C 16.679688 417.867188 17.800781 418.699219 18.960938 419.476562 C 20.125 420.253906 21.320312 420.96875 22.554688 421.628906 C 23.785156 422.289062 25.046875 422.882812 26.339844 423.417969 C 27.628906 423.953125 28.945312 424.421875 30.28125 424.828125 C 31.617188 425.234375 32.972656 425.574219 34.34375 425.847656 C 35.714844 426.121094 37.09375 426.324219 38.484375 426.460938 C 39.875 426.597656 41.269531 426.667969 42.667969 426.667969 L 341.332031 426.667969 L 341.332031 725.332031 C 341.332031 726.730469 341.402344 728.125 341.539062 729.515625 C 341.675781 730.90625 341.878906 732.285156 342.152344 733.65625 C 342.425781 735.027344 342.765625 736.382812 343.171875 737.71875 C 343.578125 739.054688 344.046875 740.371094 344.582031 741.660156 C 345.117188 742.953125 345.710938 744.214844 346.371094 745.445312 C 347.03125 746.679688 347.746094 747.875 348.523438 749.039062 C 349.300781 750.199219 350.132812 751.320312 351.019531 752.402344 C 351.90625 753.480469 352.84375 754.515625 353.832031 755.503906 C 354.816406 756.492188 355.851562 757.429688 356.933594 758.316406 C 358.011719 759.203125 359.132812 760.03125 360.296875 760.808594 C 361.457031 761.585938 362.65625 762.304688 363.886719 762.960938 C 365.121094 763.621094 366.382812 764.21875 367.671875 764.753906 C 368.964844 765.285156 370.277344 765.757812 371.613281 766.164062 C 372.953125 766.570312 374.304688 766.90625 375.675781 767.179688 C 377.046875 767.453125 378.425781 767.65625 379.816406 767.792969 C 381.207031 767.929688 382.601562 768 384 768 C 385.398438 768 386.792969 767.929688 388.183594 767.792969 C 389.574219 767.65625 390.953125 767.453125 392.324219 767.179688 C 393.695312 766.90625 395.046875 766.570312 396.386719 766.164062 C 397.722656 765.757812 399.035156 765.285156 400.328125 764.753906 C 401.617188 764.21875 402.878906 763.621094 404.113281 762.960938 C 405.34375 762.304688 406.542969 761.585938 407.703125 760.808594 C 408.867188 760.03125 409.988281 759.203125 411.066406 758.316406 C 412.148438 757.429688 413.183594 756.492188 414.167969 755.503906 C 415.15625 754.515625 416.09375 753.480469 416.980469 752.402344 C 417.867188 751.320312 418.699219 750.199219 419.476562 749.039062 C 420.253906 747.875 420.96875 746.679688 421.628906 745.445312 C 422.289062 744.214844 422.882812 742.953125 423.417969 741.660156 C 423.953125 740.371094 424.421875 739.054688 424.828125 737.71875 C 425.234375 736.382812 425.574219 735.027344 425.847656 733.65625 C 426.121094 732.285156 426.324219 730.90625 426.460938 729.515625 C 426.597656 728.125 426.667969 726.730469 426.667969 725.332031 L 426.667969 426.667969 L 725.332031 426.667969 C 726.730469 426.667969 728.125 426.597656 729.515625 426.460938 C 730.90625 426.324219 732.285156 426.121094 733.65625 425.847656 C 735.027344 425.574219 736.382812 425.234375 737.71875 424.828125 C 739.054688 424.421875 740.371094 423.953125 741.660156 423.417969 C 742.953125 422.882812 744.214844 422.289062 745.445312 421.628906 C 746.679688 420.96875 747.875 420.253906 749.039062 419.476562 C 750.199219 418.699219 751.320312 417.867188 752.402344 416.980469 C 753.480469 416.09375 754.515625 415.15625 755.503906 414.167969 C 756.492188 413.183594 757.429688 412.148438 758.316406 411.066406 C 759.203125 409.988281 760.03125 408.867188 760.808594 407.703125 C 761.585938 406.542969 762.304688 405.34375 762.960938 404.113281 C 763.621094 402.878906 764.21875 401.617188 764.753906 400.328125 C 765.285156 399.035156 765.757812 397.722656 766.164062 396.386719 C 766.570312 395.046875 766.90625 393.695312 767.179688 392.324219 C 767.453125 390.953125 767.65625 389.574219 767.792969 388.183594 C 767.929688 386.792969 768 385.398438 768 384 C 768 382.601562 767.929688 381.207031 767.792969 379.816406 C 767.65625 378.425781 767.453125 377.046875 767.179688 375.675781 C 766.90625 374.304688 766.570312 372.953125 766.164062 371.613281 C 765.757812 370.277344 765.285156 368.964844 764.753906 367.671875 C 764.21875 366.382812 763.621094 365.121094 762.960938 363.886719 C 762.304688 362.65625 761.585938 361.457031 760.808594 360.296875 C 760.03125 359.132812 759.203125 358.011719 758.316406 356.933594 C 757.429688 355.851562 756.492188 354.816406 755.503906 353.832031 C 754.515625 352.84375 753.480469 351.90625 752.402344 351.019531 C 751.320312 350.132812 750.199219 349.300781 749.039062 348.523438 C 747.875 347.746094 746.679688 347.03125 745.445312 346.371094 C 744.214844 345.710938 742.953125 345.117188 741.660156 344.582031 C 740.371094 344.046875 739.054688 343.578125 737.71875 343.171875 C 736.382812 342.765625 735.027344 342.425781 733.65625 342.152344 C 732.285156 341.878906 730.90625 341.675781 729.515625 341.539062 C 728.125 341.402344 726.730469 341.332031 725.332031 341.332031 Z M 725.332031 341.332031 " fill-opacity="1" fill-rule="nonzero"/></svg>