<svg xmlns="http://www.w3.org/2000/svg" xmlns:xlink="http://www.w3.org/1999/xlink" width="500" zoomAndPan="magnify"  viewBox="0 0 375 374.999991" height="500" preserveAspectRatio="xMidYMid meet" version="1.0"><defs><clipPath id="ec84c14073"><path d="M 44 37.5 L 330 37.5 L 330 336 L 44 336 Z M 44 37.5 " clip-rule="nonzero"/></clipPath></defs><g clip-path="url(#ec84c14073)"><path fill="#ffff" d="M 266.695312 335.976562 L 108.085938 335.976562 C 73.15625 335.976562 44.816406 307.648438 44.816406 272.949219 L 44.816406 170.167969 C 44.816406 135.25 73.15625 106.921875 108.085938 106.921875 L 180.578125 106.921875 L 180.800781 82.761719 C 171.351562 79.90625 164.324219 71.121094 164.324219 60.582031 C 164.324219 47.84375 174.867188 37.523438 187.609375 37.523438 C 200.351562 37.523438 210.894531 47.84375 210.894531 60.582031 C 210.894531 71.121094 203.648438 80.128906 193.980469 82.980469 L 193.761719 106.921875 L 266.695312 106.921875 C 301.40625 106.921875 329.746094 135.25 329.746094 170.167969 L 329.746094 273.167969 C 329.746094 307.867188 301.40625 335.976562 266.695312 335.976562 Z M 127.855469 236.273438 C 109.183594 236.273438 94.464844 221.558594 94.464844 203.109375 C 94.464844 184.445312 109.183594 169.730469 127.855469 169.730469 C 146.527344 169.730469 161.027344 184.445312 161.027344 203.109375 C 161.027344 221.558594 146.527344 236.273438 127.855469 236.273438 Z M 127.855469 182.90625 C 116.433594 182.90625 107.644531 191.691406 107.644531 203.109375 C 107.644531 214.3125 116.433594 223.097656 127.855469 223.097656 C 139.058594 223.097656 148.066406 214.3125 148.066406 203.109375 C 148.066406 191.691406 139.058594 182.90625 127.855469 182.90625 Z M 247.144531 234.957031 C 228.472656 234.957031 213.53125 220.023438 213.53125 201.574219 C 213.53125 183.125 228.472656 168.191406 247.144531 168.191406 C 265.378906 168.191406 280.316406 183.125 280.316406 201.574219 C 280.316406 220.023438 265.378906 234.957031 247.144531 234.957031 Z M 247.144531 181.371094 C 235.71875 181.371094 226.714844 190.59375 226.714844 201.574219 C 226.714844 212.773438 235.71875 222 247.144531 222 C 258.347656 222 267.136719 212.773438 267.136719 201.574219 C 267.136719 190.152344 258.128906 181.371094 247.144531 181.371094 Z M 184.972656 274.925781 C 172.453125 274.925781 161.46875 268.996094 155.316406 263.726562 C 152.460938 261.308594 152.242188 256.917969 154.65625 254.5 C 157.074219 251.867188 161.027344 251.425781 163.882812 254.0625 C 165.859375 255.820312 184.972656 270.972656 203.207031 254.28125 C 205.84375 251.867188 209.796875 251.867188 212.652344 254.5 C 215.070312 257.355469 215.070312 261.308594 212.433594 263.945312 C 203.207031 271.851562 193.761719 274.925781 184.972656 274.925781 Z M 184.972656 274.925781 " fill-opacity="1" fill-rule="evenodd"/></g><path fill="#ffff" d="M 31.632812 265.480469 L 29 265.480469 C 13.179688 265.480469 0 252.523438 0 236.492188 L 0 191.691406 C 0 175.660156 13.179688 162.484375 29 162.484375 L 32.074219 162.484375 C 31.855469 164.898438 31.632812 167.535156 31.632812 170.167969 Z M 31.632812 265.480469 " fill-opacity="1" fill-rule="evenodd"/><path fill="#ffff" d="M 345.5625 265.480469 L 342.925781 265.480469 L 342.925781 170.167969 C 342.925781 167.3125 342.707031 164.679688 342.488281 162.261719 L 345.5625 162.261719 C 361.820312 162.261719 375 175.21875 375 191.472656 L 375 236.492188 C 375 252.746094 361.820312 265.480469 345.5625 265.480469 Z M 345.5625 265.480469 " fill-opacity="1" fill-rule="evenodd"/></svg>