<svg xmlns="http://www.w3.org/2000/svg" xmlns:xlink="http://www.w3.org/1999/xlink" width="500" zoomAndPan="magnify" viewBox="0 0 375 374.999991" height="500" preserveAspectRatio="xMidYMid meet" version="1.0"><defs><clipPath id="8428ae6b73"><path d="M 58.359375 0 L 316.359375 0 L 316.359375 375 L 58.359375 375 Z M 58.359375 0 " clip-rule="nonzero"/></clipPath></defs><g clip-path="url(#8428ae6b73)"><path fill="#10E6FE" d="M 247.851562 79.917969 L 126.867188 79.917969 C 148.0625 9.917969 187.359375 0 187.359375 0 C 187.359375 0 226.65625 9.917969 247.851562 79.917969 Z M 261.050781 184.425781 C 261.050781 252.050781 228.808594 307.378906 228.808594 307.378906 L 145.910156 307.378906 C 145.910156 307.378906 113.667969 252.050781 113.667969 184.425781 C 113.667969 146.460938 117.550781 116.285156 123.496094 92.214844 L 251.222656 92.214844 C 257.167969 116.285156 261.050781 146.460938 261.050781 184.425781 Z M 224.203125 153.6875 C 224.203125 152.480469 224.144531 151.273438 224.027344 150.074219 C 223.910156 148.871094 223.730469 147.675781 223.496094 146.492188 C 223.261719 145.308594 222.96875 144.136719 222.617188 142.980469 C 222.269531 141.824219 221.863281 140.6875 221.398438 139.574219 C 220.9375 138.457031 220.421875 137.367188 219.855469 136.300781 C 219.285156 135.234375 218.664062 134.199219 217.996094 133.195312 C 217.324219 132.191406 216.605469 131.222656 215.839844 130.289062 C 215.074219 129.355469 214.265625 128.460938 213.414062 127.605469 C 212.558594 126.753906 211.667969 125.941406 210.734375 125.175781 C 209.800781 124.410156 208.832031 123.691406 207.828125 123.019531 C 206.824219 122.347656 205.792969 121.726562 204.726562 121.160156 C 203.664062 120.589844 202.574219 120.074219 201.460938 119.609375 C 200.34375 119.148438 199.210938 118.742188 198.054688 118.390625 C 196.898438 118.039062 195.730469 117.746094 194.546875 117.511719 C 193.363281 117.277344 192.171875 117.097656 190.972656 116.980469 C 189.769531 116.863281 188.566406 116.804688 187.359375 116.804688 C 186.152344 116.804688 184.949219 116.863281 183.746094 116.980469 C 182.546875 117.097656 181.355469 117.277344 180.171875 117.511719 C 178.988281 117.746094 177.820312 118.039062 176.664062 118.390625 C 175.507812 118.742188 174.375 119.148438 173.257812 119.609375 C 172.144531 120.074219 171.054688 120.589844 169.992188 121.160156 C 168.925781 121.726562 167.894531 122.347656 166.890625 123.019531 C 165.886719 123.691406 164.917969 124.410156 163.984375 125.175781 C 163.050781 125.941406 162.160156 126.753906 161.304688 127.605469 C 160.453125 128.460938 159.644531 129.355469 158.878906 130.289062 C 158.113281 131.222656 157.394531 132.191406 156.722656 133.195312 C 156.054688 134.199219 155.433594 135.234375 154.863281 136.300781 C 154.296875 137.367188 153.78125 138.457031 153.320312 139.574219 C 152.855469 140.6875 152.449219 141.824219 152.101562 142.980469 C 151.75 144.136719 151.457031 145.308594 151.222656 146.492188 C 150.988281 147.675781 150.808594 148.871094 150.691406 150.074219 C 150.574219 151.273438 150.515625 152.480469 150.515625 153.6875 C 150.515625 154.898438 150.574219 156.101562 150.691406 157.304688 C 150.808594 158.507812 150.988281 159.699219 151.222656 160.882812 C 151.457031 162.070312 151.75 163.238281 152.101562 164.394531 C 152.449219 165.550781 152.855469 166.6875 153.320312 167.804688 C 153.78125 168.921875 154.296875 170.011719 154.863281 171.074219 C 155.433594 172.140625 156.054688 173.175781 156.722656 174.179688 C 157.394531 175.183594 158.113281 176.15625 158.878906 177.089844 C 159.644531 178.023438 160.453125 178.917969 161.304688 179.769531 C 162.160156 180.625 163.050781 181.433594 163.984375 182.203125 C 164.917969 182.96875 165.886719 183.6875 166.890625 184.359375 C 167.894531 185.027344 168.925781 185.648438 169.992188 186.21875 C 171.054688 186.789062 172.144531 187.304688 173.257812 187.765625 C 174.375 188.226562 175.507812 188.636719 176.664062 188.984375 C 177.820312 189.335938 178.988281 189.628906 180.171875 189.863281 C 181.355469 190.101562 182.546875 190.277344 183.746094 190.394531 C 184.949219 190.515625 186.152344 190.574219 187.359375 190.574219 C 188.566406 190.574219 189.769531 190.515625 190.972656 190.394531 C 192.171875 190.277344 193.363281 190.101562 194.546875 189.863281 C 195.730469 189.628906 196.898438 189.335938 198.054688 188.984375 C 199.210938 188.636719 200.34375 188.226562 201.460938 187.765625 C 202.574219 187.304688 203.664062 186.789062 204.726562 186.21875 C 205.792969 185.648438 206.824219 185.027344 207.828125 184.359375 C 208.832031 183.6875 209.800781 182.96875 210.734375 182.203125 C 211.667969 181.433594 212.558594 180.625 213.414062 179.769531 C 214.265625 178.917969 215.074219 178.023438 215.839844 177.089844 C 216.605469 176.15625 217.324219 175.183594 217.996094 174.179688 C 218.664062 173.175781 219.285156 172.140625 219.855469 171.074219 C 220.421875 170.011719 220.9375 168.921875 221.398438 167.804688 C 221.863281 166.6875 222.269531 165.550781 222.617188 164.394531 C 222.96875 163.238281 223.261719 162.070312 223.496094 160.882812 C 223.730469 159.699219 223.910156 158.507812 224.027344 157.304688 C 224.144531 156.101562 224.203125 154.898438 224.203125 153.6875 Z M 156.65625 319.671875 C 156.25 319.671875 155.851562 319.710938 155.457031 319.789062 C 155.0625 319.867188 154.675781 319.984375 154.304688 320.140625 C 153.933594 320.292969 153.578125 320.484375 153.242188 320.707031 C 152.910156 320.933594 152.597656 321.1875 152.3125 321.472656 C 152.027344 321.757812 151.773438 322.070312 151.550781 322.402344 C 151.324219 322.738281 151.136719 323.09375 150.980469 323.46875 C 150.828125 323.839844 150.710938 324.222656 150.632812 324.621094 C 150.554688 325.015625 150.515625 325.414062 150.515625 325.820312 L 150.515625 338.113281 C 150.515625 338.519531 150.554688 338.917969 150.632812 339.3125 C 150.710938 339.710938 150.828125 340.09375 150.980469 340.46875 C 151.136719 340.839844 151.324219 341.195312 151.550781 341.53125 C 151.773438 341.867188 152.027344 342.175781 152.3125 342.460938 C 152.597656 342.746094 152.90625 343 153.242188 343.226562 C 153.578125 343.449219 153.933594 343.640625 154.304688 343.792969 C 154.675781 343.949219 155.0625 344.066406 155.457031 344.144531 C 155.851562 344.222656 156.25 344.261719 156.65625 344.261719 C 157.058594 344.261719 157.457031 344.222656 157.851562 344.144531 C 158.25 344.066406 158.632812 343.949219 159.003906 343.792969 C 159.378906 343.640625 159.730469 343.449219 160.066406 343.226562 C 160.402344 343 160.710938 342.746094 160.996094 342.460938 C 161.28125 342.175781 161.535156 341.867188 161.761719 341.53125 C 161.984375 341.195312 162.175781 340.839844 162.328125 340.46875 C 162.484375 340.09375 162.597656 339.710938 162.679688 339.3125 C 162.757812 338.917969 162.796875 338.519531 162.796875 338.113281 L 162.796875 325.820312 C 162.796875 325.414062 162.757812 325.015625 162.679688 324.621094 C 162.597656 324.222656 162.484375 323.839844 162.328125 323.46875 C 162.175781 323.09375 161.984375 322.738281 161.761719 322.402344 C 161.535156 322.070312 161.28125 321.757812 160.996094 321.472656 C 160.710938 321.1875 160.402344 320.933594 160.066406 320.707031 C 159.730469 320.484375 159.378906 320.292969 159.003906 320.140625 C 158.632812 319.984375 158.25 319.867188 157.851562 319.789062 C 157.457031 319.710938 157.058594 319.671875 156.65625 319.671875 Z M 218.0625 319.671875 C 217.660156 319.671875 217.261719 319.710938 216.867188 319.789062 C 216.46875 319.867188 216.085938 319.984375 215.714844 320.140625 C 215.339844 320.292969 214.988281 320.484375 214.652344 320.707031 C 214.316406 320.933594 214.007812 321.1875 213.722656 321.472656 C 213.4375 321.757812 213.183594 322.070312 212.957031 322.402344 C 212.734375 322.738281 212.542969 323.09375 212.390625 323.46875 C 212.234375 323.839844 212.121094 324.222656 212.039062 324.621094 C 211.960938 325.015625 211.921875 325.414062 211.921875 325.820312 L 211.921875 338.113281 C 211.921875 338.519531 211.960938 338.917969 212.039062 339.3125 C 212.121094 339.710938 212.234375 340.09375 212.390625 340.46875 C 212.542969 340.839844 212.734375 341.195312 212.957031 341.53125 C 213.183594 341.867188 213.4375 342.175781 213.722656 342.460938 C 214.007812 342.746094 214.316406 343 214.652344 343.226562 C 214.988281 343.449219 215.339844 343.640625 215.714844 343.792969 C 216.085938 343.949219 216.46875 344.066406 216.867188 344.144531 C 217.261719 344.222656 217.660156 344.261719 218.0625 344.261719 C 218.464844 344.261719 218.867188 344.222656 219.261719 344.144531 C 219.65625 344.066406 220.042969 343.949219 220.414062 343.792969 C 220.785156 343.640625 221.140625 343.449219 221.476562 343.226562 C 221.808594 343 222.121094 342.746094 222.40625 342.460938 C 222.691406 342.175781 222.945312 341.867188 223.167969 341.53125 C 223.394531 341.195312 223.582031 340.839844 223.738281 340.46875 C 223.890625 340.09375 224.007812 339.710938 224.085938 339.3125 C 224.164062 338.917969 224.203125 338.519531 224.203125 338.113281 L 224.203125 325.820312 C 224.203125 325.414062 224.164062 325.015625 224.085938 324.621094 C 224.007812 324.222656 223.890625 323.839844 223.738281 323.46875 C 223.582031 323.09375 223.394531 322.738281 223.167969 322.402344 C 222.945312 322.070312 222.691406 321.757812 222.40625 321.472656 C 222.121094 321.1875 221.808594 320.933594 221.476562 320.707031 C 221.140625 320.484375 220.785156 320.292969 220.414062 320.140625 C 220.042969 319.984375 219.65625 319.867188 219.261719 319.789062 C 218.867188 319.710938 218.464844 319.671875 218.0625 319.671875 Z M 187.359375 319.671875 C 186.957031 319.671875 186.558594 319.710938 186.160156 319.789062 C 185.765625 319.867188 185.382812 319.984375 185.007812 320.140625 C 184.636719 320.292969 184.28125 320.484375 183.949219 320.707031 C 183.613281 320.933594 183.300781 321.1875 183.015625 321.472656 C 182.730469 321.757812 182.476562 322.070312 182.253906 322.402344 C 182.03125 322.738281 181.839844 323.09375 181.6875 323.46875 C 181.53125 323.839844 181.414062 324.222656 181.335938 324.621094 C 181.257812 325.015625 181.21875 325.414062 181.21875 325.820312 L 181.21875 368.851562 C 181.21875 369.257812 181.257812 369.65625 181.335938 370.050781 C 181.414062 370.449219 181.53125 370.832031 181.6875 371.203125 C 181.839844 371.578125 182.03125 371.933594 182.253906 372.269531 C 182.476562 372.601562 182.730469 372.914062 183.015625 373.199219 C 183.300781 373.484375 183.613281 373.738281 183.949219 373.964844 C 184.28125 374.1875 184.636719 374.378906 185.007812 374.53125 C 185.382812 374.6875 185.765625 374.804688 186.160156 374.882812 C 186.558594 374.960938 186.957031 375 187.359375 375 C 187.761719 375 188.160156 374.960938 188.558594 374.882812 C 188.953125 374.804688 189.335938 374.6875 189.710938 374.53125 C 190.082031 374.378906 190.4375 374.1875 190.769531 373.964844 C 191.105469 373.738281 191.417969 373.484375 191.703125 373.199219 C 191.988281 372.914062 192.242188 372.601562 192.464844 372.269531 C 192.6875 371.933594 192.878906 371.578125 193.03125 371.203125 C 193.1875 370.832031 193.304688 370.449219 193.382812 370.050781 C 193.460938 369.65625 193.5 369.257812 193.5 368.851562 L 193.5 325.820312 C 193.5 325.414062 193.460938 325.015625 193.382812 324.621094 C 193.304688 324.222656 193.1875 323.839844 193.03125 323.46875 C 192.878906 323.09375 192.6875 322.738281 192.464844 322.402344 C 192.242188 322.070312 191.988281 321.757812 191.703125 321.472656 C 191.417969 321.1875 191.105469 320.933594 190.769531 320.707031 C 190.4375 320.484375 190.082031 320.292969 189.710938 320.140625 C 189.335938 319.984375 188.953125 319.867188 188.558594 319.789062 C 188.160156 319.710938 187.761719 319.671875 187.359375 319.671875 Z M 58.402344 313.523438 C 58.402344 338.113281 70.683594 350.410156 70.683594 350.410156 L 129.433594 302.289062 C 117.644531 277.566406 109.449219 251.699219 104.847656 224.691406 C 89.25 242.367188 58.402344 281.367188 58.402344 313.523438 Z M 269.871094 224.691406 C 265.269531 251.699219 257.074219 277.5625 245.285156 302.285156 L 304.035156 350.410156 C 304.035156 350.410156 316.316406 338.113281 316.316406 313.523438 C 316.316406 281.367188 285.46875 242.367188 269.871094 224.691406 Z M 269.871094 224.691406 " fill-opacity="1" fill-rule="nonzero"/></g></svg>