<svg xmlns="http://www.w3.org/2000/svg" xmlns:xlink="http://www.w3.org/1999/xlink" width="1024" zoomAndPan="magnify" viewBox="0 0 768 767.999994" height="1024" preserveAspectRatio="xMidYMid meet" version="1.0"><path fill="#d9d9d9" d="M 311.230469 1.378906 C 138.585938 3.269531 0.15625 144.792969 2.058594 317.441406 C 3.941406 490.066406 145.449219 628.503906 318.109375 626.605469 C 381.867188 625.914062 443.882812 605.722656 495.871094 568.753906 L 674.425781 747.277344 C 694.871094 767.457031 727.832031 767.246094 748.011719 746.773438 C 767.988281 726.527344 767.988281 693.960938 748.011719 673.683594 L 569.453125 495.164062 C 669.527344 354.476562 636.570312 159.28125 495.871094 59.203125 C 441.96875 20.90625 377.339844 0.652344 311.230469 1.378906 Z M 307.472656 55.484375 C 450.046875 51.503906 568.871094 163.835938 572.851562 306.4375 C 572.914062 308.945312 572.96875 311.453125 572.96875 313.957031 C 573.023438 456.585938 457.429688 572.269531 314.8125 572.351562 C 172.175781 572.40625 56.484375 456.835938 56.417969 314.195312 C 56.417969 314.117188 56.417969 314.050781 56.417969 313.96875 C 56.261719 174.03125 167.574219 59.402344 307.472656 55.484375 Z M 307.472656 55.484375 " fill-opacity="1" fill-rule="nonzero"/><path fill="#d9d9d9" d="M 244.964844 122.429688 C 259.101562 117.375 274.660156 124.714844 279.730469 138.851562 C 284.757812 152.886719 277.554688 168.363281 263.558594 173.539062 C 204.511719 195.03125 165.207031 251.15625 165.207031 313.984375 C 165.207031 329.011719 153.035156 341.183594 138.023438 341.183594 C 123.007812 341.183594 110.835938 329.011719 110.835938 313.984375 C 110.84375 228.292969 164.433594 151.738281 244.964844 122.429688 Z M 244.964844 122.429688 " fill-opacity="1" fill-rule="nonzero"/></svg>